<svg width="2966" height="1175" viewBox="0 0 2966 1175" fill="none" xmlns="http://www.w3.org/2000/svg">
<g clip-path="url(#clip0_124_14)">
<path d="M1251.5 365.794C1321.07 365.794 1369.14 313.297 1369.14 245.831C1369.14 178.364 1321.29 127.132 1251.5 127.132C1181.71 127.132 1135.12 173.937 1135.12 245.831C1135.12 317.724 1181.93 365.794 1251.5 365.794Z" fill="#00BF8F"/>
<path d="M2937.52 959.707C2890.72 990.91 2834 1014.1 2750.09 1014.1C2666.18 1014.1 2603.98 980.157 2572.57 909.529C2793.52 922.179 2965.35 832.786 2965.35 668.759C2965.35 547.741 2871.32 454.343 2724.16 454.343C2526.61 454.343 2420.56 583.372 2377.13 768.482C2354.78 863.567 2313.46 999.554 2240.3 999.554C2185.06 999.554 2184.01 931.666 2184.01 874.741C2184.01 828.991 2184.01 752.881 2184.01 691.318C2184.01 534.88 2113.8 460.668 1974.02 460.668C1850.47 460.668 1785.54 555.542 1753.49 631.652H1749.9L1747.8 478.588H1600.64L1596 553.644C1578.71 725.683 1518.41 1000.19 1404.77 1000.19C1345.53 1000.19 1334.99 913.324 1334.99 843.538V477.956H1184.24C1098.01 549.006 982.687 587.588 902.782 586.534C732.641 583.793 656.32 474.583 656.32 300.014C656.32 214.416 697.853 162.13 744.658 162.13C791.463 162.13 823.72 201.555 823.72 282.726C823.72 329.53 812.757 380.13 803.691 409.857C832.153 460.035 872.001 480.697 960.339 464.673C988.801 406.484 1004.61 336.277 1004.61 267.756C1004.61 92.9769 906.577 0 743.393 0C580.209 0 475.215 134.722 475.215 304.863C475.215 475.004 558.494 610.358 688.577 676.138C633.971 785.349 554.909 900.885 482.383 973.411C350.403 813.811 239.505 584.848 191.014 167.822H0C71.8937 852.604 345.975 1114.46 416.815 1156.83C456.873 1180.87 491.238 1179.6 527.712 1159.15C585.058 1126.47 761.946 923.444 857.453 721.677C943.051 721.467 1072.92 693.004 1151.35 633.55V840.165C1151.35 1061.75 1229.57 1170.12 1360.92 1170.12C1465.28 1170.12 1562.05 1068.92 1602.95 943.262H1606.33V1137.65H1777.95V940.099C1777.95 722.099 1835.71 619.846 1927 619.846C1978.45 619.846 2012.81 653.579 2012.81 740.231V913.745C2012.81 1061.12 2079.01 1170.33 2195.39 1170.33C2304.18 1170.33 2377.34 1074.4 2411.07 980.157C2481.7 1113.4 2612 1170.33 2727.95 1170.33C2814.39 1170.33 2883.76 1150.51 2937.52 1123.52V959.707ZM2704.97 614.786C2755.15 614.786 2789.09 629.333 2791.62 671.71C2795.42 735.382 2733.01 797.366 2553.81 801.583C2561.4 695.534 2622.12 614.786 2704.97 614.786Z" fill="#00BF8F"/>
</g>
<defs>
<clipPath id="clip0_124_14">
<rect width="2965.35" height="1174.76" fill="white"/>
</clipPath>
</defs>
</svg>
